<svg xmlns="http://www.w3.org/2000/svg" enable-background="new 0 0 64 64" viewBox="0 0 64 64" id="wedding-cake"><path fill="#634f49" d="M17.76,58.28h-3.98c-5.67,0-10.91-3.01-13.77-7.91L0,50.36h3.98l0.01,0.01
		C6.85,55.27,12.09,58.28,17.76,58.28z"></path><path fill="#7f6a62" d="M64,50.36c-1.43,2.45-3.45,4.43-5.83,5.8c-2.38,1.36-5.1,2.12-7.94,2.12H17.76c-5.67,0-10.91-3.01-13.77-7.91
		l-0.01-0.01H64z"></path><path fill="#e48599" d="M34.69,24.39l-0.25,0.25l-2.43,2.44l-2.43-2.44l-0.26-0.25c-0.34-0.34-0.51-0.78-0.51-1.21
		c0-0.45,0.17-0.89,0.51-1.22c0.68-0.68,1.76-0.68,2.44,0l0.25,0.25l0.25-0.25c0.67-0.68,1.76-0.68,2.43,0
		c0.33,0.33,0.51,0.77,0.51,1.22C35.2,23.61,35.02,24.05,34.69,24.39z M43.24,34.38L43,34.64l-2.44,2.43l-2.43-2.43l-0.26-0.26
		c-0.34-0.34-0.5-0.77-0.5-1.21s0.16-0.89,0.5-1.22c0.68-0.68,1.76-0.68,2.44,0l0.25,0.25l0.25-0.25c0.67-0.68,1.76-0.68,2.43,0
		c0.33,0.33,0.51,0.78,0.51,1.22S43.57,34.04,43.24,34.38z M51.79,24.39l-0.24,0.25l-2.44,2.44l-2.43-2.44l-0.25-0.25
		c-0.34-0.34-0.51-0.78-0.51-1.21c0-0.45,0.17-0.89,0.51-1.22c0.67-0.68,1.76-0.68,2.43,0l0.25,0.25l0.25-0.25
		c0.67-0.68,1.76-0.68,2.43,0c0.34,0.33,0.51,0.77,0.51,1.22C52.3,23.61,52.13,24.05,51.79,24.39z M12.47,24.64l-0.25-0.25
		c-0.34-0.34-0.51-0.78-0.51-1.21c0-0.45,0.17-0.89,0.51-1.22c0.67-0.68,1.76-0.68,2.43,0l0.25,0.25l0.25-0.25
		c0.47-0.48,1.14-0.62,1.74-0.42c0.25,0.07,0.49,0.22,0.69,0.42c0.34,0.33,0.51,0.77,0.51,1.22c0,0.43-0.17,0.87-0.51,1.21
		l-0.24,0.25l-2.44,2.44L12.47,24.64z M23.46,37.07l-2.44-2.43l-0.25-0.26c-0.34-0.34-0.51-0.77-0.51-1.21s0.17-0.89,0.51-1.22
		c0.67-0.68,1.76-0.68,2.43,0l0.26,0.25l0.24-0.25c0.48-0.48,1.15-0.62,1.75-0.42c0.25,0.08,0.49,0.22,0.69,0.42
		c0.33,0.33,0.5,0.78,0.5,1.22s-0.17,0.87-0.5,1.21l-0.25,0.26L23.46,37.07z M46.25,15.68H21.76c-6.82,0-12.39,5.58-12.39,12.39
		v12.58c1.26-0.89,2.92-0.94,4.22-0.15c0.28,0.15,0.53,0.35,0.77,0.59l0.9,0.9c1.29,1.29,3.27,1.48,4.76,0.59
		c0.27-0.16,0.53-0.36,0.76-0.59l0.9-0.9c1.29-1.29,3.26-1.49,4.76-0.6c0.27,0.16,0.53,0.36,0.77,0.6l1.14,1.14
		c1.28,1.28,3.25,1.48,4.75,0.59c0.27-0.15,0.53-0.35,0.77-0.59l1.17-1.18c1.3-1.29,3.26-1.48,4.76-0.59
		c0.27,0.16,0.53,0.36,0.76,0.59l1.22,1.22c1.29,1.29,3.25,1.48,4.75,0.59c0.28-0.16,0.53-0.36,0.77-0.59l1.25-1.25
		c1.29-1.28,3.26-1.48,4.75-0.59c0.27,0.15,0.53,0.35,0.77,0.59l1.39,1.39c0.86,0.87,2.04,1.25,3.17,1.12V28.06
		C58.63,21.23,53.08,15.68,46.25,15.68z"></path><path fill="#cc6a82" d="M21.76,15.68c-6.82,0-12.39,5.58-12.39,12.39v12.58c-0.19,0.12-0.36,0.27-0.53,0.44l-0.83,0.84
		c-0.72,0.71-1.66,1.1-2.62,1.13V28.07c0-6.81,5.57-12.39,12.39-12.39H21.76z"></path><path fill="#c5005c" d="M18.09 23.18c0 .43-.17.87-.51 1.21l-.24.25-2.44 2.44-2.43-2.44-.25-.25c-.34-.34-.51-.78-.51-1.21 0-.45.17-.89.51-1.22.67-.68 1.76-.68 2.43 0l.25.25.25-.25c.67-.68 1.76-.68 2.43 0C17.92 22.29 18.09 22.73 18.09 23.18zM35.2 23.18c0 .43-.18.87-.51 1.21l-.25.25-2.43 2.44-2.43-2.44-.26-.25c-.34-.34-.51-.78-.51-1.21 0-.45.17-.89.51-1.22.68-.68 1.76-.68 2.44 0l.25.25.25-.25c.67-.68 1.76-.68 2.43 0C35.02 22.29 35.2 22.73 35.2 23.18zM52.3 23.18c0 .43-.17.87-.51 1.21l-.24.25-2.44 2.44-2.43-2.44-.25-.25c-.34-.34-.51-.78-.51-1.21 0-.45.17-.89.51-1.22.67-.68 1.76-.68 2.43 0l.25.25.25-.25c.67-.68 1.76-.68 2.43 0C52.13 22.29 52.3 22.73 52.3 23.18zM43.75 33.17c0 .44-.18.87-.51 1.21L43 34.64l-2.44 2.43-2.43-2.43-.26-.26c-.34-.34-.5-.77-.5-1.21s.16-.89.5-1.22c.68-.68 1.76-.68 2.44 0l.25.25.25-.25c.67-.68 1.76-.68 2.43 0C43.57 32.28 43.75 32.73 43.75 33.17zM26.64 33.17c0 .44-.17.87-.5 1.21l-.25.26-2.43 2.43-2.44-2.43-.25-.26c-.34-.34-.51-.77-.51-1.21s.17-.89.51-1.22c.67-.68 1.76-.68 2.43 0l.26.25.24-.25c.68-.68 1.76-.68 2.44 0C26.47 32.28 26.64 32.73 26.64 33.17z"></path><path fill="#421f11" d="M9.37,40.65v3.67c-0.19,0.13-0.36,0.27-0.53,0.44L8.01,45.6c-0.72,0.72-1.66,1.1-2.62,1.14v-3.68
		c0.96-0.03,1.9-0.42,2.62-1.13l0.83-0.84C9.01,40.92,9.18,40.77,9.37,40.65z"></path><path fill="#532c1a" d="M58.63,43.53v3.68c-1.13,0.13-2.31-0.26-3.17-1.12l-1.39-1.39c-0.14-0.14-0.3-0.27-0.46-0.39
		c-0.1-0.08-0.21-0.14-0.31-0.2c-0.15-0.09-0.31-0.17-0.47-0.24c-0.16-0.07-0.33-0.12-0.5-0.17c-0.16-0.05-0.33-0.08-0.5-0.1
		c-0.18-0.03-0.35-0.04-0.52-0.04c-1,0-2,0.38-2.76,1.14l-1.25,1.25c-0.12,0.11-0.24,0.22-0.37,0.32c-0.11,0.09-0.23,0.17-0.36,0.25
		c-0.01,0.01-0.02,0.01-0.04,0.02c-0.01,0.01-0.03,0.02-0.05,0.02c-0.12,0.08-0.23,0.14-0.36,0.19c-0.03,0.02-0.07,0.04-0.12,0.05
		c-0.14,0.06-0.29,0.11-0.44,0.15c-0.14,0.04-0.27,0.07-0.4,0.09c-0.08,0.01-0.15,0.02-0.23,0.03c-1.13,0.11-2.29-0.26-3.15-1.12
		l-1.22-1.22c-0.11-0.11-0.24-0.22-0.37-0.32c-0.11-0.09-0.23-0.18-0.36-0.25c-0.01-0.01-0.02-0.02-0.03-0.02
		c-0.02-0.01-0.03-0.02-0.05-0.02c-0.12-0.08-0.23-0.14-0.36-0.19c-0.04-0.02-0.08-0.04-0.12-0.05c-0.14-0.06-0.29-0.11-0.44-0.15
		c-0.13-0.04-0.26-0.07-0.39-0.09c-0.09-0.01-0.17-0.02-0.25-0.03c-1.12-0.11-2.28,0.26-3.15,1.12l-1.17,1.18
		c-0.14,0.14-0.3,0.27-0.46,0.39c-0.1,0.08-0.21,0.14-0.31,0.2c-0.14,0.08-0.28,0.15-0.42,0.21c-0.04,0.03-0.07,0.04-0.1,0.05
		c-0.15,0.06-0.3,0.11-0.45,0.15c-0.17,0.05-0.34,0.08-0.51,0.1c-0.17,0.03-0.34,0.04-0.51,0.04c-1,0-2-0.38-2.76-1.14l-1.14-1.15
		c-0.14-0.14-0.3-0.27-0.46-0.39c-0.1-0.08-0.21-0.14-0.31-0.2c-0.15-0.09-0.31-0.17-0.47-0.24c-0.16-0.07-0.33-0.12-0.5-0.17
		s-0.34-0.08-0.51-0.1c-0.17-0.03-0.34-0.04-0.51-0.04c-1,0-2,0.38-2.77,1.14l-0.9,0.91c-0.11,0.11-0.24,0.22-0.37,0.32
		c-0.11,0.09-0.23,0.18-0.36,0.25c-0.01,0.01-0.02,0.02-0.03,0.02c-0.02,0.02-0.04,0.03-0.06,0.03c-0.1,0.07-0.21,0.12-0.32,0.17
		c-0.05,0.02-0.1,0.05-0.14,0.06c-0.15,0.06-0.3,0.11-0.45,0.15c-0.14,0.04-0.27,0.07-0.41,0.09c-0.07,0.01-0.14,0.02-0.21,0.03
		c-1.13,0.12-2.3-0.26-3.17-1.12l-0.9-0.91c-0.12-0.12-0.24-0.22-0.37-0.32c-0.11-0.09-0.23-0.17-0.36-0.25
		c-0.01-0.01-0.02-0.01-0.04-0.02c-0.02-0.01-0.04-0.03-0.06-0.03c-0.13-0.08-0.27-0.15-0.41-0.21c-0.16-0.07-0.32-0.13-0.48-0.17
		h-0.03c-0.12-0.04-0.24-0.07-0.36-0.08c-0.09-0.02-0.18-0.03-0.26-0.04c-0.13-0.01-0.26-0.02-0.39-0.02
		c-0.12,0-0.25,0.01-0.37,0.02c-0.11,0.01-0.21,0.02-0.31,0.04c-0.15,0.02-0.29,0.06-0.43,0.1c-0.11,0.03-0.22,0.07-0.33,0.11
		C9.88,44,9.62,44.14,9.37,44.32v-3.67c1.26-0.89,2.91-0.94,4.21-0.15h0.01c0.28,0.15,0.53,0.35,0.77,0.59l0.9,0.9
		c1.29,1.29,3.27,1.48,4.76,0.59c0.27-0.16,0.53-0.36,0.76-0.59l0.9-0.9c1.29-1.29,3.26-1.49,4.76-0.6c0.27,0.16,0.53,0.36,0.77,0.6
		l1.14,1.14c1.28,1.28,3.25,1.48,4.75,0.59c0.27-0.15,0.53-0.35,0.77-0.59l1.17-1.18c1.3-1.29,3.26-1.48,4.76-0.59
		c0.27,0.16,0.53,0.36,0.76,0.59l1.22,1.22c1.29,1.29,3.25,1.48,4.75,0.59c0.28-0.16,0.53-0.36,0.77-0.59l1.25-1.25
		c1.29-1.28,3.26-1.48,4.75-0.59c0.27,0.15,0.53,0.35,0.77,0.59l1.39,1.39C56.32,43.28,57.5,43.66,58.63,43.53z"></path><path fill="#cc6a82" d="M9.37,44.32v6.04H5.39v-3.62c0.96-0.04,1.9-0.42,2.62-1.14l0.83-0.84C9.01,44.59,9.18,44.45,9.37,44.32z"></path><path fill="#e48599" d="M58.63,47.21v3.15H9.37v-6.04c0.25-0.18,0.51-0.32,0.79-0.43c0.11-0.04,0.22-0.08,0.33-0.11
		c0.14-0.04,0.28-0.08,0.43-0.1c0.1-0.02,0.2-0.03,0.31-0.04c0.12-0.01,0.24-0.02,0.37-0.02s0.26,0.01,0.39,0.02
		c0.09,0.01,0.17,0.02,0.26,0.04c0.12,0.01,0.24,0.04,0.36,0.08h0.03c0.16,0.04,0.32,0.1,0.48,0.17c0.14,0.06,0.28,0.13,0.41,0.21
		c0.02,0,0.04,0.02,0.06,0.03c0.02,0.01,0.03,0.01,0.04,0.02c0.13,0.08,0.25,0.16,0.36,0.25c0.13,0.1,0.25,0.2,0.37,0.32l0.9,0.91
		c0.87,0.86,2.04,1.24,3.17,1.12c0.07-0.01,0.14-0.02,0.21-0.03c0.14-0.02,0.28-0.05,0.41-0.09c0.15-0.04,0.3-0.09,0.45-0.15
		c0.04-0.01,0.09-0.04,0.14-0.06c0.11-0.05,0.22-0.1,0.32-0.17c0.02,0,0.04-0.01,0.06-0.03c0.01,0,0.02-0.01,0.03-0.02
		c0.12-0.07,0.24-0.15,0.36-0.25c0.13-0.09,0.25-0.2,0.37-0.32l0.9-0.91c0.77-0.76,1.77-1.14,2.77-1.14c0.17,0,0.34,0.01,0.51,0.04
		c0.17,0.02,0.34,0.05,0.51,0.1s0.34,0.1,0.5,0.17c0.16,0.07,0.32,0.15,0.47,0.24c0.1,0.06,0.21,0.12,0.31,0.2
		c0.16,0.12,0.32,0.25,0.46,0.39l1.14,1.15c0.76,0.76,1.76,1.14,2.76,1.14c0.17,0,0.34-0.01,0.51-0.04c0.17-0.02,0.34-0.05,0.51-0.1
		c0.15-0.04,0.3-0.09,0.45-0.15c0.03-0.01,0.06-0.02,0.1-0.05c0.14-0.05,0.28-0.12,0.42-0.21c0.11-0.06,0.21-0.12,0.31-0.2
		c0.16-0.12,0.32-0.25,0.46-0.39l1.17-1.18c0.87-0.86,2.03-1.23,3.15-1.12c0.09,0.01,0.17,0.02,0.25,0.03
		c0.13,0.02,0.26,0.05,0.39,0.09c0.15,0.04,0.3,0.09,0.44,0.15c0.04,0.01,0.08,0.03,0.12,0.05c0.13,0.05,0.24,0.11,0.36,0.19
		c0.02,0,0.03,0.01,0.05,0.02c0.01,0,0.02,0.01,0.03,0.02c0.13,0.07,0.25,0.16,0.36,0.25c0.13,0.1,0.26,0.21,0.37,0.32l1.22,1.22
		c0.86,0.86,2.02,1.23,3.15,1.12c0.08-0.01,0.15-0.02,0.23-0.03c0.13-0.02,0.27-0.05,0.4-0.09c0.15-0.04,0.3-0.09,0.44-0.15
		c0.05-0.01,0.09-0.03,0.12-0.05c0.12-0.05,0.25-0.11,0.36-0.19c0.02,0,0.04-0.01,0.05-0.02c0.02-0.01,0.03-0.01,0.04-0.02
		c0.13-0.08,0.25-0.16,0.36-0.25c0.13-0.1,0.25-0.2,0.37-0.32l1.25-1.25c0.76-0.76,1.76-1.14,2.76-1.14c0.17,0,0.34,0.01,0.52,0.04
		c0.17,0.02,0.34,0.05,0.5,0.1c0.17,0.05,0.34,0.1,0.5,0.17c0.16,0.07,0.32,0.15,0.47,0.24c0.1,0.06,0.21,0.12,0.31,0.2
		c0.16,0.12,0.32,0.25,0.46,0.39l1.39,1.39C56.32,46.95,57.5,47.34,58.63,47.21z"></path><path fill="#cca22e" d="M24.69,15.48c0.05,0.07,0.11,0.13,0.17,0.2h-2.38c-0.17-0.17-0.35-0.37-0.51-0.58
		c-2.21-2.73-2.77-6.45-1.25-8.33c0.98-1.2,2.57-1.34,4.17-0.56c-0.56,0.14-1.05,0.45-1.45,0.94C21.92,9.03,22.48,12.75,24.69,15.48
		z"></path><path fill="#e5bc39" d="M31.12,14.84c-0.06,0.1-0.13,0.18-0.2,0.26c-0.16,0.21-0.34,0.41-0.52,0.58h-5.54
		c-0.06-0.07-0.12-0.13-0.17-0.2c-2.21-2.73-2.77-6.45-1.25-8.33c0.4-0.49,0.89-0.8,1.45-0.94c0.53,0.24,1.05,0.6,1.56,1.04
		c0.33-0.29,0.66-0.54,1-0.74c1.5-0.93,3.06-1.05,4.16-0.26c0.2,0.14,0.39,0.31,0.56,0.52c0.26,0.32,0.46,0.69,0.6,1.12
		C33.42,9.82,32.8,12.62,31.12,14.84z"></path><path fill="#319980" d="M37.8,7.66c-0.39-0.05-0.8-0.02-1.21,0.11c-0.67,0.22-1.28,0.66-1.79,1.27c0.62,1.84,0.08,4.48-1.43,6.64
		H30.4c0.18-0.17,0.36-0.37,0.52-0.58c0.07-0.08,0.14-0.16,0.2-0.26c1.68-2.22,2.3-5.02,1.65-6.95c0.51-0.61,1.12-1.05,1.79-1.27
		C35.76,6.24,36.92,6.67,37.8,7.66z"></path><path fill="#3eb49c" d="M43.33,15.68h-9.96c1.51-2.16,2.05-4.8,1.43-6.64c0.51-0.61,1.12-1.05,1.79-1.27
		C37,7.64,37.41,7.61,37.8,7.66c0.56,0.63,1.01,1.48,1.29,2.5c0.56-0.08,1.09-0.09,1.59-0.04c1.21,0.1,2.21,0.54,2.82,1.27
		c0.35,0.42,0.57,0.93,0.63,1.52C44.23,13.82,43.92,14.78,43.33,15.68z"></path><path d="M43.33,15.68c0,0.01-0.01,0.01-0.01,0.02"></path></svg>